<?xml version="1.0" encoding="utf-8"?>
<!-- Generator: Adobe Illustrator 16.0.0, SVG Export Plug-In . SVG Version: 6.00 Build 0)  -->
<!DOCTYPE svg PUBLIC "-//W3C//DTD SVG 1.1//EN" "http://www.w3.org/Graphics/SVG/1.1/DTD/svg11.dtd">
<svg version="1.1" xmlns="http://www.w3.org/2000/svg" xmlns:xlink="http://www.w3.org/1999/xlink" x="0px" y="0px"
	 width="209.214px" height="39.781px" viewBox="0 0 209.214 39.781" enable-background="new 0 0 209.214 39.781"
	 xml:space="preserve">
<g id="Layer_1">
</g>
<g id="Layer_2">
	<g>
		<path fill-rule="evenodd" clip-rule="evenodd" fill="#0071BB" d="M13.104,13.537c-0.766-0.956-1.529-1.795-2.294-2.275
			c-0.108-0.119-0.217-0.119-0.327-0.24c-0.874-0.476-1.967-0.84-3.055-0.84c-2.298,0-4.041,1.08-5.357,2.999
			C0.654,15.218,0,17.853,0,21.086c0,3.238,0.654,5.753,2.071,7.792c1.423,1.914,3.17,2.873,5.357,2.873
			c1.088,0,2.181-0.24,3.165-0.837c0.108-0.122,0.108-0.122,0.217-0.122c0.872-0.719,1.748-1.556,2.623-2.752v2.991h8.187V10.905
			h-8.516V13.537z M12.449,23.005c-0.325,0.479-0.983,0.718-1.639,0.718c-0.656,0-1.201-0.238-1.638-0.718
			c-0.436-0.602-0.656-1.198-0.656-2.158c0-0.837,0.221-1.557,0.656-2.034c0.437-0.599,0.981-0.836,1.638-0.836
			c0.655,0,1.202,0.237,1.639,0.836c0.439,0.478,0.655,1.197,0.655,2.034C13.104,21.807,12.889,22.524,12.449,23.005"/>
		<polygon fill-rule="evenodd" clip-rule="evenodd" fill="#0071BB" points="56.967,4.194 48.014,4.194 48.014,10.905 45.502,10.905 
			45.502,18.331 48.014,18.331 48.014,31.031 56.967,31.031 56.967,18.331 59.479,18.331 59.479,10.905 56.967,10.905 		"/>
		<path fill-rule="evenodd" clip-rule="evenodd" fill="#0071BB" d="M35.248,20.73c0,1.435-0.109,2.393-0.325,2.754
			c-0.22,0.481-0.55,0.599-1.094,0.599c-0.546,0-0.985-0.239-1.204-0.599c-0.213-0.361-0.213-1.319-0.213-2.754v-9.825h-8.846
			v10.779c0,3.594,0.871,6.116,2.506,7.674c1.644,1.673,4.153,2.393,7.757,2.393c3.494,0,6.115-0.72,7.753-2.393
			c1.641-1.558,2.402-4.08,2.402-7.674V10.905h-8.736V20.73z"/>
		<path fill-rule="evenodd" clip-rule="evenodd" fill="#0071BB" d="M74.416,10.551c-0.01,0.161-0.021,0.319-0.021,0.486
			c0,5.835,3.29,10.834,7.941,12.917c0.278-0.947,0.432-1.949,0.432-2.989C82.769,15.868,79.193,11.612,74.416,10.551"/>
		<path fill-rule="evenodd" clip-rule="evenodd" fill="#0071BB" d="M69.711,10.978c0-0.138-0.012-0.272-0.021-0.409
			c-4.74,1.092-8.281,5.326-8.281,10.396c0,1.011,0.15,1.982,0.412,2.908C66.443,21.771,69.711,16.788,69.711,10.978"/>
		<path fill-rule="evenodd" clip-rule="evenodd" fill="#0071BB" d="M64.309,28.268c1.951,2.074,4.711,3.379,7.781,3.379
			c3.061,0,5.811-1.293,7.758-3.354c-2.158-1.823-4.856-2.928-7.79-2.928C69.142,25.365,66.463,26.455,64.309,28.268"/>
		<rect x="119.934" y="10.905" fill-rule="evenodd" clip-rule="evenodd" fill="#EC1C24" width="8.956" height="20.126"/>
		<path fill-rule="evenodd" clip-rule="evenodd" fill="#EC1C24" d="M164.194,18.573c-0.215-0.12-0.434-0.12-0.76-0.242
			c-1.423-0.354-2.079-0.72-2.079-1.196c0-0.36,0.11-0.6,0.328-0.839c0.328-0.119,0.548-0.238,0.985-0.238
			c0.544,0,1.092,0.119,1.745,0.478c0.655,0.239,1.421,0.719,2.184,1.317l2.182-5.992c-0.979-0.599-2.073-0.957-3.273-1.198
			c-1.201-0.236-2.398-0.479-3.708-0.479c-2.517,0-4.7,0.721-6.229,2.037c-1.642,1.317-2.4,3.117-2.4,5.153
			c0,1.56,0.323,2.756,1.089,3.713c0.877,0.84,2.076,1.56,3.822,2.037c0.216,0.119,0.439,0.119,0.877,0.241
			c0.979,0.239,1.527,0.602,1.527,1.084c0,0.354-0.109,0.594-0.327,0.83c-0.326,0.243-0.658,0.361-1.095,0.361
			c-0.543,0-1.306-0.238-2.073-0.598c-0.875-0.36-1.749-0.959-2.731-1.678l-2.4,6.231c1.312,0.721,2.729,1.318,4.147,1.68
			c1.421,0.359,2.84,0.476,4.37,0.476c2.732,0,4.916-0.72,6.552-2.036c1.635-1.437,2.513-3.354,2.513-5.632
			c0-1.438-0.438-2.635-1.312-3.475C167.364,19.651,166.055,19.051,164.194,18.573"/>
		<path fill-rule="evenodd" clip-rule="evenodd" fill="#EC1C24" d="M142.734,20.73c0,1.435-0.112,2.393-0.222,2.754
			c-0.221,0.481-0.656,0.599-1.202,0.599c-0.545,0-0.872-0.239-1.093-0.599c-0.22-0.361-0.328-1.319-0.328-2.754v-9.825h-8.736
			v10.779c0,3.594,0.765,6.116,2.403,7.674c1.639,1.673,4.261,2.393,7.754,2.393c3.604,0,6.115-0.72,7.756-2.393
			c1.635-1.558,2.509-4.08,2.509-7.674V10.905h-8.841V20.73z"/>
		<path fill-rule="evenodd" clip-rule="evenodd" fill="#EC1C24" d="M124.409,0c-1.424,0-2.626,0.363-3.498,1.197
			c-0.867,0.842-1.309,1.916-1.309,3.356c0,1.434,0.441,2.634,1.309,3.476c0.872,0.838,2.074,1.315,3.498,1.315
			c1.527,0,2.731-0.478,3.496-1.315c0.875-0.842,1.309-2.042,1.309-3.476c0-1.44-0.434-2.515-1.202-3.356
			C127.141,0.363,125.937,0,124.409,0"/>
		<rect x="108.38" y="0.838" fill-rule="evenodd" clip-rule="evenodd" fill="#EC1C24" width="8.954" height="30.193"/>
		<path fill-rule="evenodd" clip-rule="evenodd" fill="#EC1C24" d="M99.338,10.182c-1.199,0-2.181,0.364-3.162,0.84
			c-0.113,0.121-0.22,0.121-0.329,0.24c-0.767,0.48-1.531,1.319-2.294,2.275v-2.632h-8.521v28.876h8.847v-8.03
			c0-0.598,0-1.317-0.105-1.915c0-0.478-0.112-1.08-0.112-1.558c0.655,1.08,1.42,1.914,2.187,2.514c0.109,0,0.216,0,0.329,0.122
			c0.869,0.597,1.963,0.837,3.162,0.837c2.076,0,3.826-0.959,5.247-2.995c1.415-1.917,2.07-4.432,2.07-7.67
			c0-3.233-0.655-5.868-1.969-7.905C103.274,11.262,101.526,10.182,99.338,10.182 M97.595,23.123
			c-0.438,0.48-0.983,0.843-1.748,0.843c-0.654,0-1.202-0.362-1.641-0.843c-0.434-0.599-0.653-1.316-0.653-2.153
			c0-0.841,0.22-1.563,0.653-2.157c0.438-0.481,0.986-0.836,1.641-0.836c0.765,0,1.311,0.354,1.748,0.836
			c0.325,0.595,0.544,1.316,0.544,2.157C98.139,21.807,97.92,22.524,97.595,23.123"/>
		<path fill-rule="evenodd" clip-rule="evenodd" fill="#EC1C24" d="M176.268,22.239c-1.417,0-2.62,0.358-3.499,1.194
			c-0.868,0.841-1.309,1.919-1.309,3.358c0,1.435,0.44,2.633,1.309,3.472c0.879,0.842,2.082,1.319,3.499,1.319
			c1.531,0,2.729-0.478,3.494-1.319c0.873-0.839,1.313-2.037,1.313-3.472c0-1.439-0.439-2.518-1.201-3.358
			C178.997,22.598,177.799,22.239,176.268,22.239"/>
		<rect x="183.958" y="0.784" fill-rule="evenodd" clip-rule="evenodd" fill="#EC1C24" width="8.956" height="30.197"/>
		<polygon fill-rule="evenodd" clip-rule="evenodd" fill="#EC1C24" points="206.703,10.916 206.703,4.202 197.75,4.202 
			197.75,10.916 195.239,10.916 195.239,18.343 197.75,18.343 197.75,31.043 206.703,31.043 206.703,18.343 209.214,18.343 
			209.214,10.916 		"/>
		<path fill-rule="evenodd" clip-rule="evenodd" fill="#EC1C24" d="M72.836,11.037c0-0.238,0.021-0.474,0.032-0.708
			c-0.258-0.021-0.516-0.041-0.778-0.041c-0.287,0-0.571,0.021-0.854,0.045c0.012,0.213,0.032,0.426,0.032,0.645
			c0,6.523-3.67,12.113-8.862,14.471c0.249,0.538,0.533,1.057,0.866,1.541c2.429-2.079,5.476-3.326,8.785-3.326
			c3.331,0,6.39,1.263,8.827,3.355c0.326-0.473,0.608-0.976,0.854-1.499C76.524,23.176,72.836,17.58,72.836,11.037"/>
		<rect fill="none" width="209.214" height="39.781"/>
	</g>
</g>
<g id="Layer_3">
</g>
</svg>
