<?xml version="1.0" standalone="no"?>
<!-- Generator: Adobe Fireworks 10, Export SVG Extension by Aaron Beall (http://fireworks.abeall.com) . Version: 0.6.1  -->
<!DOCTYPE svg PUBLIC "-//W3C//DTD SVG 1.1//EN" "http://www.w3.org/Graphics/SVG/1.1/DTD/svg11.dtd">
<svg id="Untitled-Page%201" viewBox="0 0 143 27" style="background-color:#ffffff00" version="1.1"
	xmlns="http://www.w3.org/2000/svg" xmlns:xlink="http://www.w3.org/1999/xlink" xml:space="preserve"
	x="0px" y="0px" width="143px" height="27px"
>
	<g id="Layer%201">
		<g>
			<path d="M 47.787 7.8471 L 47.4048 7.8471 C 45.4081 7.9551 43.8151 8.7335 42.6686 10.2033 C 41.8614 11.1328 41.3092 12.2786 41.0116 13.5757 C 40.7996 14.4619 40.693 15.4132 40.693 16.4291 C 40.693 17.2937 40.7996 18.0504 41.0116 18.6991 C 41.2879 19.6285 41.7341 20.3637 42.3499 20.9903 C 43.3905 21.9632 45.0259 22.4389 47.0224 22.4172 L 47.4048 22.4172 C 49.4224 22.3092 51.0151 21.5309 52.1622 20.061 C 53.3939 18.4827 54.0525 16.4507 54.0311 13.8349 C 54.0311 11.8893 53.4365 10.3331 52.3958 9.3603 C 51.3337 8.301 49.8046 7.8253 47.787 7.8471 ZM 48.2328 16.883 C 47.9993 17.51 47.702 17.8777 47.4048 18.0722 C 47.2557 18.1801 47.0861 18.245 46.9161 18.245 C 46.6188 18.245 46.4278 18.1584 46.2367 17.9639 C 46.0453 17.6612 46.0453 17.2723 46.0453 16.7967 C 46.0241 15.5212 46.2153 14.3538 46.5976 13.4892 C 46.7885 12.7974 47.0861 12.3434 47.4048 12.149 C 47.5534 12.0623 47.6807 12.0191 47.8296 12.0191 C 48.1055 12.0191 48.4028 12.1056 48.4879 12.4083 C 48.6788 12.6028 48.7851 12.992 48.7851 13.5757 C 48.7851 14.8294 48.6152 15.9104 48.2328 16.883 ZM 121.3787 15.7157 C 120.4229 15.7157 119.5736 16.1265 118.9152 16.7967 C 118.2566 17.4883 117.9592 18.3531 117.9807 19.3257 C 117.9807 20.1039 118.1714 20.7958 118.6602 21.2714 C 119.1275 21.6605 119.7009 21.9416 120.4655 21.9416 C 121.4215 21.9416 122.2706 21.5309 122.9503 20.8606 C 123.6089 20.1689 123.9912 19.3043 123.9698 18.3314 C 123.9698 17.5532 123.6725 16.8616 123.2053 16.3858 C 122.7168 15.9969 122.1433 15.7157 121.3787 15.7157 ZM 133.9732 0 L 133.6338 0 L 128.6424 0.0431 L 125.1378 21.5309 L 130.4898 21.4878 L 133.6338 2.1183 L 133.9732 0 ZM 141.0881 7.6309 L 141.7253 3.545 L 136.3731 3.5883 L 135.7362 7.6525 L 133.9307 7.6741 L 133.6338 9.7061 L 133.2937 12.0409 L 133.6338 12.0409 L 135.0141 12.0409 L 133.6338 20.8606 L 133.5486 21.466 L 133.6338 21.466 L 138.7947 21.4228 L 140.345 11.9975 L 142.2561 11.9975 L 143 7.6094 L 141.0881 7.6309 ZM 9.2176 2.5507 L 7.6884 2.5724 L 0 22.3307 L 5.9043 22.2874 L 6.8389 19.3691 L 9.2176 19.3691 L 10.2795 19.3475 L 10.3008 22.2658 L 16.1201 22.2227 L 14.5698 2.5292 L 9.2176 2.5507 ZM 10.3432 15.37 L 9.2176 15.37 L 8.0495 15.3915 L 9.2176 11.7381 L 10.4069 8.0848 L 10.3432 15.37 ZM 24.6794 17.1209 C 24.5731 17.4235 24.488 17.7047 24.1908 17.8992 C 23.9995 18.0937 23.7236 18.2016 23.4262 18.2016 C 23.1503 18.2016 22.9591 18.1154 22.7678 18.0072 C 22.6617 17.8127 22.5764 17.6181 22.5764 17.4235 L 22.5764 17.229 L 22.5764 17.1425 L 23.9572 8.3875 L 18.6899 8.4308 L 17.3307 16.6886 C 17.3307 17.0776 17.2246 17.3588 17.2246 17.6612 C 17.2246 17.9424 17.2246 18.1369 17.2457 18.4396 C 17.2457 19.8015 17.7342 20.7526 18.6899 21.5309 C 19.6456 22.2009 20.9838 22.5901 22.7041 22.5684 C 24.8067 22.5684 26.5057 22.0713 27.6527 21.0768 C 28.8846 20.1039 29.6491 18.5476 30.0104 16.6021 L 31.2845 8.3441 L 26.0384 8.3657 L 24.6794 17.1209 ZM 41.3092 8.2796 L 41.0116 8.2796 L 39.3979 8.2796 L 40.0348 4.2152 L 34.7041 4.237 L 34.0669 8.3227 L 32.2403 8.3441 L 31.603 12.711 L 33.3234 12.6893 L 31.8581 22.1362 L 37.1037 22.0928 L 38.6754 12.6678 L 40.5657 12.6462 L 41.0116 10.1168 L 41.3092 8.2796 Z" fill="#000000"/>
			<path d="M 77.2237 4.0426 C 77.3509 3.6748 77.4151 3.2641 77.4151 2.7885 C 77.4151 2.378 77.3509 2.0105 77.2237 1.686 C 77.1175 1.4265 76.9478 1.1674 76.7352 0.9511 C 76.3528 0.5619 75.6733 0.281 75.0148 0.281 C 74.059 0.3026 73.2945 0.6916 72.6577 1.3618 C 71.999 1.967 71.7231 2.8318 71.7231 3.8045 C 71.7231 4.5827 71.914 5.1664 72.4022 5.5556 C 72.8696 6.0313 73.4218 6.2258 74.1866 6.2258 C 75.1423 6.204 75.9071 5.923 76.4806 5.2314 C 76.82 4.8638 77.075 4.4747 77.2237 4.0426 ZM 104.4305 21.6605 L 106.4483 9.1008 L 106.6391 7.8471 L 106.4483 7.8471 L 101.3935 7.8903 L 101.117 9.3387 C 100.7347 8.755 100.2466 8.2796 99.7792 7.9983 C 99.503 7.8253 99.2056 7.6957 98.8657 7.6094 C 98.611 7.5445 98.335 7.5227 98.0588 7.5227 C 96.2324 7.5227 94.809 8.5173 93.6834 10.3547 C 93.1526 11.2195 92.7493 12.1706 92.4728 13.2297 C 92.1541 14.4836 92.0056 15.8454 92.0056 17.3588 C 92.0056 18.3962 92.1541 19.261 92.4728 19.9959 C 92.6213 20.3201 92.7913 20.6014 92.9827 20.8606 C 93.556 21.7255 94.5115 22.1144 95.6588 22.0928 C 96.3386 22.0928 96.912 22.0065 97.5703 21.5958 C 97.9738 21.4012 98.4198 21.0768 98.8657 20.6879 C 99.0358 20.5149 99.2056 20.3419 99.3755 20.1258 L 99.1842 21.6823 L 104.4305 21.6605 ZM 98.8657 17.5748 C 98.7169 17.6612 98.5684 17.7047 98.3984 17.7047 C 98.1224 17.7047 97.8251 17.6181 97.6336 17.337 C 97.5489 17.0346 97.443 16.6453 97.443 16.1696 C 97.443 15.0025 97.6128 13.9215 97.9949 13.0567 C 98.2496 12.5163 98.5473 12.1272 98.8657 11.9327 C 99.0145 11.8461 99.1632 11.7814 99.312 11.7814 C 99.6941 11.7814 99.8856 11.976 100.0763 12.1706 C 100.1825 12.4516 100.2889 12.8405 100.2889 13.4245 C 100.2889 14.5915 100.0977 15.5645 99.7364 16.4507 C 99.4818 17.0346 99.1842 17.4018 98.8657 17.5748 ZM 113.8179 11.0031 C 114.2 11.0031 114.6676 11.1112 115.0498 11.2842 C 115.5381 11.3925 116.0266 11.6734 116.4939 12.0623 L 117.3223 8.3657 C 116.7485 8.0848 116.0902 7.7822 115.3259 7.6957 C 114.646 7.5011 113.8815 7.4146 113.1384 7.4146 C 111.5029 7.4362 110.1646 7.8253 109.2301 8.7117 C 108.1897 9.5982 107.7009 10.7652 107.7222 12.1272 C 107.7222 12.884 107.9135 13.5757 108.2956 14.1594 C 108.784 14.6348 109.464 15.2185 110.4197 15.8886 C 110.5048 15.8886 110.6107 15.9751 110.8021 16.0834 C 111.6514 16.5588 112.0337 17.0346 112.0551 17.4235 C 112.0551 17.7262 111.949 17.9207 111.7578 18.0072 C 111.5664 18.2016 111.2903 18.2016 110.908 18.2234 C 110.4197 18.2234 109.952 18.1154 109.3788 17.9424 C 108.8903 17.6397 108.3169 17.2506 107.7436 16.7751 L 106.4483 20.0824 L 106.2357 20.5798 C 106.3206 20.6229 106.3842 20.6661 106.4483 20.6879 C 107.1487 21.0986 107.85 21.3581 108.7416 21.6172 C 109.5914 21.92 110.4622 22.0065 111.3118 22.0065 C 113.032 21.9847 114.37 21.4878 115.4107 20.6229 C 116.4515 19.8229 117.0247 18.6559 117.0034 17.2072 C 117.0034 16.4291 116.8124 15.8454 116.4303 15.2617 C 116.1325 14.6782 115.2618 14.008 114.0304 13.1434 C 113.9242 13.0567 113.7328 12.9487 113.5417 12.8624 C 112.9681 12.4732 112.6712 12.0841 112.6712 11.803 C 112.6712 11.6084 112.7774 11.4139 112.9681 11.2195 C 113.2443 11.1112 113.4354 11.0031 113.8179 11.0031 ZM 89.4569 21.747 L 92.4728 3.1776 L 92.9616 0.2593 L 92.4728 0.281 L 87.6944 0.3026 L 86.1438 9.5331 C 85.7617 8.8629 85.2732 8.3875 84.806 8.0848 C 84.5298 7.9336 84.2536 7.8038 83.9351 7.7174 C 83.6588 7.6525 83.3827 7.6094 83.0856 7.6094 C 81.3654 7.6309 79.8357 8.6038 78.7105 10.4628 C 77.9666 11.6734 77.4785 13.0785 77.2237 14.6782 C 77.0962 15.5427 77.0326 16.4723 77.0326 17.4669 C 77.0326 18.1154 77.0962 18.7206 77.2237 19.2394 C 77.3724 19.9094 77.627 20.4716 78.0096 20.9471 C 78.6891 21.8335 79.5388 22.2009 80.6859 22.2009 C 81.3438 22.2009 82.0234 21.9847 82.597 21.7037 C 83.0219 21.4878 83.4891 21.1633 83.9351 20.7311 C 84.0836 20.5798 84.2536 20.4068 84.4023 20.2339 L 84.211 21.7902 L 89.4569 21.747 ZM 83.9351 17.8127 C 83.8076 17.8777 83.6802 17.8992 83.5314 17.8992 C 83.1492 17.8992 82.9367 17.7262 82.7457 17.5317 C 82.5545 17.229 82.4695 16.8398 82.4695 16.2561 C 82.4481 15.0025 82.6396 13.9215 83.0219 13.1434 C 83.2765 12.5381 83.5953 12.149 83.9351 11.976 C 84.0626 11.9111 84.211 11.8893 84.3388 11.8893 C 84.7208 11.8679 85.0183 11.976 85.1031 12.2569 C 85.2943 12.4516 85.4004 12.9487 85.4004 13.4245 C 85.4004 14.6998 85.2309 15.7589 84.8485 16.6453 C 84.5721 17.2072 84.2963 17.6397 83.9351 17.8127 ZM 54.2858 22.4604 L 54.2858 22.7631 L 54.2858 22.9576 C 54.2858 24.3194 54.6897 25.3788 55.5389 26.049 C 56.41 26.6326 57.7478 27 59.6594 27 C 60.3813 27 61.0398 26.9569 61.6343 26.8704 C 62.9727 26.6974 63.9706 26.3514 64.693 25.7895 C 65.6486 25.0114 66.4134 23.4548 66.7741 21.3147 L 68.8769 8.1063 L 63.8219 8.128 L 63.5461 9.4902 C 63.1637 8.8197 62.6752 8.4308 62.2929 8.1495 C 62.1015 8.0201 61.8682 7.9336 61.6343 7.8686 C 61.3158 7.7822 60.9549 7.7606 60.5726 7.7606 C 58.9585 7.7822 57.6205 8.647 56.4947 10.3114 C 55.4541 12.0623 54.9017 14.2026 54.923 16.8398 C 54.923 18.1801 55.2203 19.3475 55.8789 20.1258 C 56.4733 20.904 57.3231 21.2714 58.47 21.2714 C 59.1282 21.2714 59.7017 21.1633 60.2753 20.8823 C 60.7426 20.6229 61.2097 20.2554 61.6343 19.8229 L 61.8893 19.4989 L 61.6343 21.2283 L 61.5284 21.8335 C 61.4433 22.4172 61.2524 22.9144 60.9549 23.1953 C 60.6788 23.498 60.2966 23.5845 59.8293 23.606 C 59.5321 23.606 59.2557 23.606 59.0648 23.4115 C 58.7672 23.2169 58.6823 23.0226 58.6609 22.7199 L 58.6609 22.4389 L 54.2858 22.4604 ZM 61.6343 17.2506 C 61.4644 17.337 61.2948 17.3802 61.1248 17.3802 C 60.8275 17.3802 60.6365 17.2723 60.4451 16.9913 C 60.3603 16.7967 60.254 16.4075 60.254 15.8239 C 60.2326 14.7647 60.4239 13.7918 60.8062 12.9055 C 61.0612 12.3868 61.3158 12.0409 61.6343 11.8679 C 61.7831 11.7814 61.953 11.7381 62.1229 11.7381 C 62.3141 11.7381 62.6115 11.8246 62.6966 12.1272 C 62.9088 12.3218 62.9938 12.6893 62.9938 13.2729 C 63.0151 14.3538 62.8241 15.3267 62.4415 16.1914 C 62.1868 16.7318 61.9317 17.0776 61.6343 17.2506 ZM 68.9616 21.8767 L 74.1866 21.8549 L 76.3951 8.0415 L 71.1706 8.0848 L 68.9616 21.8767 Z" fill="#ff9800"/>
		</g>
	</g>
</svg>